<svg xmlns="http://www.w3.org/2000/svg" xmlns:xlink="http://www.w3.org/1999/xlink" id="Layer_1" x="0" y="0" version="1.1" viewBox="0 0 94.5 105.6" xml:space="preserve" style="enable-background:new 0 0 94.5 105.6"><style type="text/css">.st0{fill:#fefefe}.st1{fill:#fdcb98}.st2{fill:#424d3d}.st3{fill:#fdfdfd}.st4{fill:#434e3e}.st5{fill:#f2f3f2}.st6{fill:#fcfdfc}.st7{fill:#394533}.st8{fill:#3c4837}.st9{fill:#5d6559}.st10{fill:#33402d}.st11{fill:#303e2a}.st12{fill:#eaebea}.st13{fill:#364330}.st14{fill:#5e665a}.st15{fill:#34412e}.st16{fill:#686f64}.st17{fill:#f58026}.st18{fill:#0178ad}.st19{fill:#2c3924}.st20{fill:#3b4736}.st21{fill:#4f594b}.st22{fill:#fcc892}.st23{fill:#384532}.st24{fill:#2b3924}.st25{fill:#25351f}.st26{fill:#3a4634}.st27{fill:#fccb98}.st28{fill:#394534}.st29{fill:#3a4734}.st30{fill:#2e3c28}.st31{fill:#35422f}.st32{fill:#f47600}.st33{fill:#303d2a}.st34{fill:#2f3d29}.st35{fill:#2d3a25}.st36{fill:#2b3823}.st37{fill:#364230}.st38{fill:#323f2c}.st39{fill:#374431}.st40{fill:#2d3a26}.st41{fill:#33412d}.st42{fill:#e5e6e4}.st43{fill:#f9f9f9}.st44{fill:#3e4a39}.st45{fill:#3f4b3a}.st46{fill:#f7f8f7}.st47{fill:#f4f5f4}</style><g><g><path d="M0.4,43.5c0-13.8,0-27.6,0-41.4c0-1.5,0.4-1.7,1.7-1.7c26,0,52.1,0,78.1,0c0.1,1.5-1.3,1.6-2.1,2.1 c-3.8,2.2-3.8,2.2-2.2,6.2c1.2,3.1,1.7,6.4,2.2,9.6c0.2,1.2,0.2,2.3,0,3.5c-0.5,4-1.3,8-3.1,11.7c-0.5,0.9-0.2,1.7,0.7,2.2 c0.4,0.2,0.8,0.4,1.2,0.6c4.1,2.3,4.2,2.3,6-2.2c1.5-3.7,2.4-7.6,2.6-11.6c0-1.8,0-3.6,0-5.5c0-0.7,0-1.4-0.2-2.1 c-0.1-0.5-0.2-0.9-0.2-1.4c-0.5-3.7-1.7-7.1-3.3-10.5c-0.4-0.9-1.3-1.7-0.6-2.8c4,0,8,0,12,0c1.1,0,1.4,0.3,1.4,1.4 c0,13.9,0,27.8,0,41.7c-0.8,0.7-1.8,0.6-2.7,0.6c-3.1,0-6.2,0-9.2,0c-0.8,0-1.6-0.1-2.3,0.4c-0.7,0.6-0.6,1.5-0.6,2.3 c0,10.3,0,20.5,0,30.8c0,0.8-0.1,1.6,0.6,2.2c1.9,0.7,3.9,0.2,5.9,0.3c2,0.1,4.1,0,6.1,0c0.8,0,1.6,0,2.3,0.6c0,3.5,0,7.1,0,10.6 c-0.2,0.1-0.4,0.1-0.6,0c-0.2-0.2-0.3-0.5-0.5-0.7c-0.8-1.6-2-2.6-3.8-2.1c-1.8,0.4-2.9,1.6-2.9,3.5c0,3.1,0,6.2,0,9.3 c-0.3,1.9,1.7,2.6,2,4.2c-2.5,0-5,0-7.5,0c0.4-1.4,2.2-2.1,2.2-3.8c0.3-1.4,0.5-2.8,0-4.1c-1.1-0.6-2.3-0.5-3.4-0.1 c-0.4,0.6,0.1,0.7,0.5,0.8c0.8,0.2,1.6,0.4,1.9,1.2c0.2,0.6,0.1,1.2,0,1.8c-0.5,1.4-1.3,2.7-3,2.3c-1.7-0.4-1.9-1.8-1.9-3.3 c0-2.6,0-5.3,0-7.9c0-1.5,0.6-2.6,2.2-2.9c1.5-0.2,2.3,0.7,2.6,2.1c0.2,0.4,0.3,0.9,0.4,1.3c0.5,0.6,0.8,0.5,0.9-0.3 c0.1-0.6-0.2-1.1-0.4-1.6c-1.2-2.3-2.2-3-4-2.6c-1.9,0.4-2.7,1.8-2.8,3.6c0,3.1,0,6.2,0,9.3c-0.3,1.9,1.7,2.6,2,4.2 c-1.5,0-3,0-4.4,0c-0.4-0.4-0.5-0.9-0.9-1.3c-1.3-0.8-2.8,0-4.1-0.7c-0.3-0.2-0.6-0.5-0.7-0.8c-0.4-1.5-0.4-3,0-4.5 c0.1-0.3,0.4-0.6,0.7-0.8c1.3-0.7,2.7-0.2,4-0.5c0.3-0.3,0.2-0.6-0.1-0.8c-1.5-0.4-3.2,0.5-4.5-0.8c-0.5-1.6-0.5-3.3-0.1-4.9 c0.6-1,1.6-0.8,2.5-0.9c0.7-0.1,1.6,0.4,1.9-0.7c-1.8-0.5-3.5-0.4-5.3,0c-0.6,0.7-0.4,1.6-0.4,2.3c0,3.9,0,7.8,0,11.7 c0,1,0.1,1.9-0.6,2.7c-0.9,0-1.8,0-2.7,0c-0.7-0.8-0.6-1.8-0.6-2.7c0-4.6,0-9.1,0-13.6c0-0.8-0.3-0.6-0.7-0.2 c-0.5,4.5-0.1,9.1-0.2,13.6c0,1,0.2,2.1-0.6,2.9c-1.8,0-3.5,0-5.3,0c0.2-1.5,2.2-2.1,2-3.9c0-3.3,0-6.7,0-10 c-0.4-1.8-1.4-3-3.3-3.3c-1.1,0.1-2.2-0.4-3.2,0.5c-0.5,4.5-0.1,9-0.2,13.5c0,1.1,0.2,2.2-0.6,3.2c-2.1,0-4.1,0-6.2,0 c-0.7-0.8-0.6-1.8-0.6-2.7c0-4.5,0-9,0-13.5c0-0.2-0.1-0.3-0.2-0.5c-0.5-0.1-0.6,0.2-0.7,0.5c-0.3,2.8,0.3,5.6-0.3,8.3 c-1.4,1-1.6-0.3-1.9-1.1c-0.8-2-1.7-3.9-2.5-5.9c-0.2-0.5-0.2-1.7-1.4-1.1c-0.4,3.6-0.1,7.1-0.2,10.7c-0.1,1.5,0.2,3.1-0.2,4.6 c-0.1,0.2-0.3,0.5-0.4,0.7c-0.4,0-0.9,0-1.3,0c-1-0.5-1.1-1.5-1.3-2.4c-0.9-3.5-1.7-7-2.4-10.5c-0.1-0.6-0.2-1.2-0.4-1.7 c-0.2-0.6-0.2-1.5-0.9-1.6c-0.8,0-0.9,0.9-1,1.5c-0.4,1.8-0.9,3.6-1.3,5.4c-0.4,2.3-1.2,4.6-1.5,6.9c-0.1,1-0.5,1.8-1.3,2.5 c-1.2,0-2.4,0-3.5,0c0.2-1.5,2.2-2.1,2.1-3.9c0-0.7,0-1.5-0.1-2.2c-0.6-2.1-2.7-2.6-4.2-3.8c-1.7-1.4-2.2-2.9-1.3-4.6 c0.5-0.9,1.2-1.5,2.3-1.5c1.1,0.1,1.7,0.8,2.1,1.8c0.2,0.6-0.3,1.7,1,1.6c0.4-0.5,0.2-1,0.2-1.5c-0.4-1.6-1.3-2.7-3.1-2.8 c-1.9-0.1-3.2,0.7-3.8,2.6c-0.6,1.4-0.3,2.8,0.5,4.1c0.8,1.1,2,1.7,3.2,2.3c0.9,0.5,1.7,1.2,1.9,2.3c0.4,1.7-0.1,3.3-1.4,3.8 c-1.6,0.6-2.5-0.4-3.2-1.6c-0.3-0.6-0.3-1.2-0.5-1.8c-0.2-0.2-0.3-0.2-0.6-0.2c-0.1,0.1-0.3,0.2-0.3,0.3c-0.2,0.6,0,1.1,0.1,1.7 c0.1,0.3,0.2,0.6,0.3,0.8c0.2,1.3,1.9,1.5,2,2.8c-5.3,0-10.6-0.1-16,0.1c-1.9,0.1-2.6-0.4-2.2-2.3c2.2-1,4.5-0.1,6.3-0.5 c-1.8-0.3-4.1,0.5-6.3-0.4c0-1,0-2.1,0-3.1c0.2-0.1,0.3-0.2,0.5-0.2c0.9,0.4,1.8,1.3,2.8,0.4c0.9-1.7,0.6-3.3,0.2-5 c-1-0.8-2-0.3-3,0c-0.2,0-0.4,0-0.6-0.1c0-16.8,0-33.7,0-50.5c0.7-0.1,0.8,0.4,1,0.8c2.7,11,5.5,21.9,8.2,32.9 c0.2,0.8,0.3,1.6,0.9,2.2c0.8,0.4,1.5,0.5,2.3,0c0.5-0.6,0.6-1.3,0.8-2c2.6-10.3,5.2-20.7,7.8-31.1c0.2-0.7,0.4-1.4,0.2-2.2 c-1-0.8-1.9-0.6-2.9-0.1c-1.6,4.1-2.3,8.5-3.6,12.8c-0.8,2.8-1.4,5.7-2.2,8.6c-0.2,0.8-0.2,2.1-1.3,2c-1-0.1-1.1-1.3-1.3-2.1 C8.8,59.8,7.2,54,5.9,48c-0.3-1.3-0.3-2.7-1.4-3.6C3.2,43.7,1.6,44.5,0.4,43.5z" class="st0"/><path d="M86,23c-0.3,5.5-1.9,10.7-4.5,15.5c-0.3,0.6-0.6,1-1.3,0.5c-1.9-1.2-3.8-2.3-5.7-3.4 c-0.5-0.3-0.9-0.5-0.5-1.2c2.1-3.9,3-8.1,3.7-12.4c0.6-1.2,0.1-2.6,0.2-3.8c0-0.3,0.1,0,0-0.2c-0.1-0.2-0.1,0.2-0.3,0.2 c-0.7-3.1-1-6.3-2.2-9.3c-0.6-1.4-2.4-2.9-1.4-4.3c0.8-1.2,2.7-1.7,4-2.6c0.8-0.5,1.8-0.6,2.3-1.6c0.3,0,0.6,0,0.9,0 c1.7,4,3.6,7.9,4.3,12.2c0.1,0.4,0.1,0.7,0.1,1.1c-0.3,0.4-0.2,0.8-0.2,1.2c0,0.3,0.2,0.4,0.1,0.2c0,0,0.1-0.1,0.1-0.1 c0.5,0.5,0.4,1.2,0.4,1.9C85.7,18.9,85.7,21,86,23z" class="st1"/><path d="M94.4,47.9c0,0.1,0,0.3,0,0.4c-1.8,1.2-3.9,0.6-5.8,0.6c-4.6,0.1-4.2-0.1-4.2,4.2c0,2-0.3,4,0.3,5.9 c0.8,1,1.9,0.5,2.9,0.6c2.2,0.3,4.6-0.6,6.7,0.6c0,1.2,0,2.4,0,3.5c-2.1,1.2-4.4,0.4-6.6,0.6c-1,0.1-2.2-0.4-3.1,0.6 c-0.5,3.5-0.5,6.9,0,10.4c0.9,1,2.1,0.5,3.1,0.6c2.2,0.3,4.4-0.6,6.5,0.6c0,1.2,0,2.4,0,3.5c-5,0.4-10.1,0.3-15.1,0 c-0.3-0.8-0.2-1.6-0.2-2.4c0-10.5,0-21,0-31.6c0-0.8-0.1-1.6,0.1-2.4c5.1-0.4,10.1-0.4,15.2,0c0,1.2,0,2.4,0,3.5 c-3.5,0.5-7,0-9.9,0.2C87.4,47.8,91,47.4,94.4,47.9z" class="st2"/><path d="M83.8,76.2c-0.2-3.9-0.2-7.9,0-11.8c3.5-0.6,7.1-0.4,10.6-0.1c0,4,0,8,0,12C90.9,76.6,87.4,76.7,83.8,76.2z" class="st3"/><path d="M83.8,59.8c0-3.5-0.1-6.9-0.1-10.4c0-1,0.3-1.3,1.3-1.3c3.2,0.1,6.3,0.1,9.5,0.2c0,3.8,0,7.7,0,11.5 C90.9,60.2,87.4,60.3,83.8,59.8z" class="st3"/><path d="M24.8,105.5c1.2-5.1,2.3-10.2,3.5-15.4c0.2-0.8,0-1.9,1.5-2c1.6,0,1.2,1.3,1.4,2c1.3,5.1,2.5,10.2,3.8,15.3 c-0.9,0-1.8,0-2.7,0c-0.8-0.8-0.8-1.9-1.1-2.8c-0.2-0.7-0.5-1.4-1.4-1.4c-0.9,0-1.2,0.6-1.4,1.4c-0.3,1-0.3,2.2-1.4,2.8 C26.3,105.5,25.6,105.5,24.8,105.5z" class="st4"/><path d="M43,88.3c0.3-0.1,0.6-0.3,0.9-0.4c0.5,5.5,0.1,11.1,0.2,16.4c0.3-0.2,0-0.7,0-1.2c0-4.3,0-8.7,0-13 c0-0.7-0.2-1.5,0.2-2.2c0.7,0.7,0.3,1.7,0.3,2.5c0.1,5.1,0.1,10.1,0.1,15.2c-0.7,0-1.5,0-2.2,0c-2-2.6-2.6-5.8-3.9-8.7 c-0.1-0.3-0.3,0.2,0,0c0.1-0.1,0.2,0,0.2,0.1c0.3,2.9,0.9,5.8-0.3,8.6c-0.7,0-1.5,0-2.2,0c0-0.1-0.1-0.2-0.1-0.3 c0,0,0-0.1,0.1-0.1c0.6-1.7,0.2-3.5,0.3-5.2c0.2-3.9-0.2-7.8,0.2-11.6c1.2-0.3,1.6,0.4,2,1.4c1.2,2.8,1.9,5.8,3.6,8.4 c0.7-2,0.1-4,0.3-6C42.9,90.7,42.6,89.5,43,88.3z" class="st2"/><path d="M16,90.9c0.9-2.5,2.2-3.5,4.9-3c1.6,0.3,2.9,1.5,2.9,3.5c-0.2,0.7-0.3,1.5,0.1,2.2c-1,0.6-2,1.2-2.2-0.7 c-0.1-1.2,0-2.5-1.6-2.8c-1-0.2-1.7,0.3-2,1.3c-0.5,1.5-0.4,2.8,0.9,3.7c0.8,0.6,1.7,1,2.5,1.6c1,0.7,2.1,1.3,2.2,2.7 c-0.3,0.9-0.3,1.8,0,2.6c0,1.8-1.4,2.6-2.6,3.6c-0.9,0-1.8,0-2.7,0c-1-0.8-2.3-1.2-2.6-2.7c0.4-1.1-0.6-2.4,0.3-3.5 c0.3,0,0.6,0,0.9,0c0.6,0.6-0.2,1.6,0.5,2.1c0.5,1,1,2,2.4,1.7c1-0.2,1.5-0.9,1.5-1.9c0-1.2,0.1-2.4-1.4-3.1 c-1.5-0.7-3.2-1.2-4-2.8C15.9,93.9,16.1,92.4,16,90.9z" class="st4"/><path d="M86.1,91.4c0.7-2.7,1.9-3.8,4.3-3.6c2.1,0.2,3.5,1.2,3.7,3.4c0.4,3.3,0.1,6.5,0.2,9.8c0,3.3-0.4,3.7-3.3,4.5 c-0.7,0-1.5,0-2.2,0c-1.2-0.9-2.6-1.8-2.6-3.6C86.3,98.4,86.4,94.9,86.1,91.4z" class="st2"/><path d="M82,92.3c-0.5-1.1-0.6-2.6-2.4-2.3c-1.8,0.3-1.6,1.7-1.6,2.9c0,2.4,0,4.9,0,7.3c0,1.2-0.1,2.7,1.6,3 c1.8,0.3,2-1.1,2.4-2.2c0.5-1.5,0.5-1.5-0.7-2.3c-0.6-0.2-1.5,0.3-1.6-0.7c0-0.9,0.9-0.8,1.5-0.9c2.2-0.2,2.5,0.2,2.6,2.4 c0,0.8-0.1,1.6,0,2.4c0,1.8-1.4,2.6-2.7,3.5c-0.9,0-1.8,0-2.7,0c-1.3-0.9-2.6-1.7-2.6-3.6c0.3-3.5,0.3-7.1,0-10.6 c0.3-2.2,1.5-3.4,3.7-3.6c2.3-0.2,3.6,1,4.2,3.1c-0.5,0.7,0.7,2.2-1,2.4c-0.6-0.1-0.5-0.6-0.6-0.9c-0.1-0.3-0.2-0.4-0.1-0.2 C82.2,92.2,82,92.3,82,92.3z" class="st2"/><path d="M55.4,87.9c2,0.1,2.9,1.4,3.5,3.1c-0.2,3.8-0.2,7.7,0,11.5c-0.2,1.6-1.5,2.3-2.6,3.1c-1.5,0-3,0-4.4,0 c-0.3-0.4-0.4-0.8-0.4-1.2c0-5.3-0.2-10.5,0.1-15.8C52.7,87.4,54.2,88.5,55.4,87.9z" class="st2"/><path d="M69.2,97.6c-0.1,0.1-0.3,0.3-0.4,0.4c-0.5,1.6-0.5,3.2,0,4.8c0.1,0.2,0.3,0.4,0.4,0.5 c1.6,0.6,3.2-0.1,4.8,0.4c0,0.6,0,1.2,0.1,1.8c-2.2,0-4.4,0-6.7,0c-0.1-0.2-0.3-0.4-0.3-0.6c-0.1-5.6-0.4-11.1,0.1-16.7 c2.2-0.5,4.5-0.4,6.7-0.1c0.3,1.4-0.1,2-1.6,1.8c-1.1-0.1-2.3,0-3.4,0c-0.8,1.7-0.6,3.5-0.1,5.3c1.7,0.5,3.4-0.3,5.1,0.5 c-1.3,0.4-2.6,0.1-3.9,0.2c1,0,1.9,0,2.9,0c0.8,0,1.1,0.4,0.8,1.1C72.2,97.7,70.6,96.8,69.2,97.6z" class="st2"/><path d="M38.6,105.5c0-3.2,0-6.3,0-9.5c1.5,3.1,3,6.2,4,9.5C41.2,105.5,39.9,105.5,38.6,105.5z" class="st5"/><path d="M27,105.5c0.3-1,0.6-1.9,0.8-2.9c0.2-1.1,0.3-2,1.9-2.1c1.6-0.1,1.9,0.8,2.1,2c0.2,1,0.3,2,0.5,3 C30.6,105.5,28.8,105.5,27,105.5z" class="st6"/><path d="M67.4,88.2c0,5.8,0,11.5,0,17.3c-0.3,0-0.6,0-0.9,0c0.4-5.3,0-10.7,0.2-16c0-0.6-0.6-1.6,0.7-1.7 c0.2,0.1,0.2,0.2,0.2,0.3C67.5,88.2,67.4,88.2,67.4,88.2z" class="st7"/><path d="M61.6,105.5c0-5.3,0-10.7,0.1-16c0-0.3-0.9-1.7,0.7-1.2c0.7,0.6,0.6,1.5,0.6,2.3c0,4.2,0,8.5,0,12.7 c0,0.8,0,1.6-0.6,2.3C62.2,105.5,61.9,105.5,61.6,105.5z" class="st8"/><path d="M62.5,105.5c0-5.7,0-11.5,0-17.2c0.3,0.1,0.5-0.9,0.9-0.1c0.3,5.8,0.3,11.6,0,17.4 C63.1,105.5,62.8,105.5,62.5,105.5z" class="st2"/><path d="M51.9,88.3c0,5.8,0,11.5,0,17.3c-0.3,0-0.6,0-0.9,0c0-5.2,0-10.4,0.1-15.6c0-0.7-0.4-1.4,0.3-2 C51.7,87.9,51.8,88.1,51.9,88.3z" class="st8"/><path d="M0.4,102.4c3.2,0,6.4,0,9.6,0c0,0.2,0,0.4,0,0.6c-3.2,0.5-6.4,0-9.6,0.3C0.4,103,0.4,102.7,0.4,102.4z" class="st9"/><path d="M63.4,105.5c0-5.8,0-11.6,0-17.4c0.6,0.2,0.5,0.6,0.5,1.1c0,5.4-0.1,10.9-0.1,16.3 C63.7,105.5,63.6,105.5,63.4,105.5z" class="st10"/><path d="M79.4,80.2c5,0,10,0,15.1,0c0,0.1,0,0.3,0,0.4c-5,0.2-10,0.2-15.1,0c-0.1-0.1-0.2-0.2-0.1-0.3 C79.3,80.3,79.3,80.2,79.4,80.2z" class="st10"/><path d="M94.4,43.9c-5,0-10,0-15.1,0c-0.1-0.1-0.2-0.2-0.1-0.3c0-0.1,0.1-0.1,0.1-0.1c5,0,10.1,0,15.1-0.1 C94.4,43.6,94.4,43.7,94.4,43.9z" class="st11"/><path d="M90.9,105.5c1.7-0.7,3.1-1.8,3.2-3.8c0-0.3,0.1-0.4,0.4-0.1c0,0.1,0,0.3,0,0.4 C94.4,105.5,94.4,105.5,90.9,105.5z" class="st12"/><path d="M83.8,76.2c3.5,0,7.1,0,10.6,0.1c0,0.1,0,0.3,0,0.4c-2.9,0-5.7,0-8.6,0C85.1,76.7,84.3,77,83.8,76.2z" class="st10"/><path d="M94.4,64.3c-3.5,0.3-7.1,0.1-10.6,0.1c0.5-0.8,1.3-0.5,2-0.5c2.9,0,5.7,0,8.6,0C94.4,64,94.4,64.1,94.4,64.3 z" class="st13"/><path d="M83.8,59.8c3.5,0,7.1,0,10.6,0c0,0.1,0,0.3,0,0.4c-2.9,0-5.7,0-8.6,0C85.1,60.3,84.3,60.6,83.8,59.8z" class="st11"/><path d="M94.4,47.9c-3.4,0-6.7,0-10.1,0c0-0.1,0-0.3,0-0.4c3.4,0,6.7,0,10.1,0C94.4,47.6,94.4,47.7,94.4,47.9z" class="st7"/><path d="M94.4,101.5l-0.2,0.1c0,0-0.2,0-0.2,0c0-3.5,0-7,0-10.4c0.1,0,0.3,0,0.4,0.1C94.4,94.7,94.4,98.1,94.4,101.5 z" class="st14"/><path d="M0.4,43.5C2,43.6,3.6,42.8,5,43.9c-1.2,0.9-2.7,0.8-4.1,0.9c-0.2-0.3-0.3-0.6-0.5-0.9 C0.4,43.7,0.4,43.6,0.4,43.5z" class="st15"/><path d="M1,99.3c-0.2,0-0.3,0-0.5,0c0-1.6,0-3.3,0-4.9c0.1,0,0.3,0,0.4,0C1,94.5,1,94.6,1.1,94.7 c0.6,1.2,0.2,2.6,0.4,3.9c0,0.2,0,0.4-0.1,0.6C1.4,99.4,1.2,99.4,1,99.3z" class="st16"/><path d="M31.5,80.6c-4.3-0.7-6.6-3.6-7-8.8c0.3-6.5,0.3-13,0-19.5c0.4-5.3,2.5-7.8,7-8.8c1.2,0.3,2.3,0.3,3.5,0 c4.4,0.8,7.3,5,7,9.7c-0.3,5.9-0.3,11.8,0,17.7c0,4.9-2.4,9.3-7.5,9.7C33.5,80.3,32.5,80.4,31.5,80.6z" class="st2"/><path d="M0.9,44.8C2,43.3,3.6,44.1,5,43.9c0.9,0.2,0.7,1,0.9,1.6c1.8,7.1,3.5,14.1,5.3,21.2c0.1,0.3,0.2,0.7,0.5,1.6 c1.7-6.6,3.1-12.7,4.7-18.7c0.5-2,0.7-4.2,1.8-6c1.3,0.4,2.8-0.1,4.1,0.3c0.6,1.3-0.2,2.5-0.5,3.7c-2.7,10.8-5.4,21.6-8,32.4 c-0.1,0.3-0.1,0.6-0.5,0.7c-1-0.1-2.1-0.3-3.1,0.1c-0.8-0.1-0.7-0.8-0.9-1.4C6.5,68,3.7,56.6,0.9,45.2C0.9,45.1,0.9,44.9,0.9,44.8 z" class="st2"/><path d="M64.3,80.6c-4.5-0.8-6.9-3.9-7-9.3c0.2-6,0.3-12.1,0-18.1c0-5.6,2.7-9.1,7.5-9.7c0.9,0.3,1.7,0.3,2.6,0 c4.4,0.5,7,3.5,7.5,8.6c0.1,1.4,0.6,2.8-0.3,4.1c-1.3-0.3-2.7-0.3-4,0c-0.9-1.2-0.3-2.5-0.4-3.7c-0.3-3-1.5-4.3-3.9-4.3 c-2.7,0-4,1.2-4,4.4c-0.1,6.3-0.1,12.7,0,19c0,2.2,0.8,4,3.2,4.6c0.5,0.4,1.1,0.5,1.6,0c2.3-0.7,3-2.5,3.2-4.7 c0.1-1.2-0.5-2.5,0.4-3.7c1.3,0.3,2.6,0.3,4,0c1.5,4.5-0.6,12.1-6.7,12.8C66.7,80.4,65.5,80.4,64.3,80.6z" class="st2"/><path d="M17.3,23c0.8,3.9,1.6,7.7,3.6,11.2c0.4,0.8-0.2,1-0.7,1.3c-1.7,1-3.3,1.9-4.9,2.9c-1.1,0.7-1.8,0.6-2.4-0.7 c-2.1-4.3-3.5-8.7-4-13.4c0.3-2.8,0.3-5.6,0-8.4c0.5-5,1.9-9.7,4.3-14.1c0.5-0.9,1-1.2,1.9-0.6c0.2,0.1,0.4,0.2,0.6,0.3 c1.7,1,4,1.6,5,3.1c1.2,1.8-1.3,3.4-1.6,5.3c-0.4,2.3-1.1,4.5-1.7,6.8C16.9,18.9,16.9,21,17.3,23z" class="st1"/><path d="M68.7,21.3c0,2.9-0.9,5.6-2.1,8.3c-0.4,1-1,1.2-1.9,0.6c-0.2-0.2-0.5-0.3-0.8-0.4c-1.6-1-4.1-1.6-4.7-3.1 c-0.5-1.4,0.9-3.5,1.4-5.3c0.4-0.7,0.4-1.5,0-2.2c-0.5-1.6-0.6-3.3-1.5-4.8c-0.5-0.9,0.1-1.3,0.6-1.6c0.9-0.6,1.9-1.1,2.9-1.7 c3.5-2,3.5-2,4.8,1.9c0.7,1.9,1.2,3.8,1.1,5.8C68.4,19.5,68.4,20.4,68.7,21.3z" class="st17"/><path d="M47.5,80.3c0-12.1,0-24.2,0-36.4c1.4-0.3,2.8-0.5,4.1,0.1c0.3,0.5,0.2,1.1,0.2,1.7c0,10.9,0,21.8,0,32.6 c0,0.6,0,1.2-0.2,1.7C50.3,80.7,48.9,80.5,47.5,80.3z" class="st2"/><path d="M34.1,21.7c0.4,1.3,0.8,2.7,1.3,3.9c0.3,0.7,0,1-0.5,1.4c-1.7,1-3.5,1.9-5.1,3c-0.8,0.5-1.2,0.4-1.6-0.5 c-1-2.2-1.8-4.5-2-6.9c0.2-1.6,0.3-3.2,0-4.8c0.1-2.6,1-5,2.1-7.4c0.4-0.9,0.9-1,1.7-0.5c0.5,0.3,1,0.6,1.5,0.9 c4.4,2.5,4.4,2.5,2.7,7.3C33.8,19.4,33.8,20.5,34.1,21.7z" class="st17"/><path d="M47.3,24.9c-2.8,0-4.8-2.1-4.8-4.9c0-2.7,2.2-4.9,4.9-4.9c2.6,0.1,4.8,2.3,4.8,4.9 C52.3,22.7,50.1,24.9,47.3,24.9z" class="st18"/><path d="M51.4,80.2c0-12.1,0-24.2,0-36.4c-0.2-0.1-0.2-0.2-0.2-0.3c0.1-0.1,0.1-0.1,0.2-0.1c0.8-0.2,0.8,0.3,0.8,0.9 c0,11.9,0,23.8,0,35.8c0,0.2-0.2,0.3-0.3,0.5C51.7,80.6,51.5,80.4,51.4,80.2z" class="st8"/><path d="M79.4,43.5c0,0.1,0,0.3,0,0.4c0,12.1,0,24.2,0,36.3c0,0.2,0,0.3,0,0.5c-0.8-0.3-0.4-1-0.4-1.5 c0-11.4,0-22.8,0-34.2C78.9,44.5,78.5,43.8,79.4,43.5z" class="st19"/><path d="M24.5,52.3c0.4,0.4,0.4,0.9,0.4,1.4c0,5.5,0,11.1,0,16.6c0,0.5,0.1,1-0.4,1.4C24.5,65.3,24.5,58.8,24.5,52.3 z" class="st13"/><path d="M83.8,102c-0.7-0.6-0.4-1.3-0.4-2c-0.1-2.6-0.5-2.9-3.3-2c0.4,0.9,1.6,0.1,2,0.9c0.2,0.2,0.2,0.4-0.1,0.6 c-0.5-0.4-1-0.5-1.6-0.4c-1.8,0.1-1.7-0.8-1.1-2c1.5-0.2,3.1-0.3,4.6,0C84.3,98.7,84.3,100.4,83.8,102z" class="st20"/><path d="M57.3,53.2c0.6,0.5,0.4,1.2,0.4,1.9c0,4.8,0,9.6,0,14.4c0,0.6,0.2,1.3-0.4,1.9 C57.3,65.3,57.3,59.3,57.3,53.2z" class="st10"/><path d="M42,70.9c-0.6-0.6-0.4-1.4-0.4-2.1c0-4.5,0-9,0-13.5c0-0.7-0.2-1.5,0.4-2.1C42,59.1,42,65,42,70.9z" class="st7"/><path d="M44.3,87.9c0,5.6,0,11.1,0,16.7c-0.1,0-0.3,0-0.4,0c0-5.6,0-11.2,0-16.8C44,87.9,44.2,87.9,44.3,87.9z" class="st8"/><path d="M36.8,88.3c0,4.9,0,9.7,0,14.6c0,0.8,0.3,1.6-0.5,2.3c0-5.3-0.1-10.6-0.1-15.9 C36.2,88.8,36.1,88.2,36.8,88.3z" class="st13"/><path d="M8.5,91.8c-0.3,0.8-1.1,1.7,0.5,2c0.1,0,0.2,0.2,0.4,0.4c-2.2,1.5-0.5,3.7-1.1,5.5c-0.1,0.2-0.2,0.3-0.3,0.5 c-0.4-1.4-0.1-2.8-0.2-4.1c-0.1-0.7,0.2-1.5-0.6-2C7.6,93.2,7,92,8,91.3C8.2,91.4,8.4,91.5,8.5,91.8z" class="st21"/><path d="M58.9,102.4c-0.6-3.8-0.6-7.7,0-11.5C59.2,94.7,59.2,98.6,58.9,102.4z" class="st10"/><path d="M86.1,91.4c0.6,3.5,0.6,7.1,0,10.6C85.9,98.4,85.9,94.9,86.1,91.4z" class="st11"/><path d="M75.9,91.4c0.6,3.5,0.6,7.1,0,10.6C75.6,98.4,75.6,94.9,75.9,91.4z" class="st10"/><path d="M43,88.3c0,2.6,0,5.1,0,7.7c0,0.7,0.3,1.5-0.5,2c0-2.7-0.1-5.4,0-8.1C42.5,89.3,42,88.5,43,88.3z" class="st13"/><path d="M8.9,16c0.6,2.8,0.6,5.6,0,8.4C8.9,21.6,8.9,18.8,8.9,16z" class="st22"/><path d="M4.4,94.1c1.2,1.9,1,4.7-0.4,6c-0.3-0.1-0.6-0.3-0.6-0.6C4,98,3.9,96.4,3.8,94.7C3.8,94.4,4.1,94.2,4.4,94.1 z" class="st23"/><path d="M82.5,93.1c1.5-0.1,0.4-1.7,1.3-2.2c0.3,0.9,0.8,2,0.1,2.8c-0.3,0.4-1.3,0.6-1.8-0.2 C82.2,93.4,82.2,93.1,82.5,93.1z" class="st20"/><path d="M17.3,23c0,0.1,0,0.1,0,0.2c-0.1,0.2-0.4,0.3-0.4,0.1c0-2.2,0-4.3,0.1-6.5c0,0,0.1-0.1,0.2-0.1 c0.1,0,0.1,0.1,0.2,0.1C17.3,18.9,17.3,21,17.3,23z" class="st22"/><path d="M67.4,88.2c0-0.1,0-0.3,0-0.4c2.2,0.1,4.4-0.6,6.6,0.4C71.8,88.2,69.6,88.2,67.4,88.2z" class="st24"/><path d="M7.2,94c1.2,0.3,0.7,1.3,0.7,2c0.1,1.4,0,2.8,0.1,4.1c-1-0.9-0.3-2-0.5-3C7.4,96.1,7.7,95,7.2,94z" class="st25"/><path d="M16,90.9c0.8,1.4,0.2,3,0.4,4.5C15.5,94,15.5,92.5,16,90.9z" class="st26"/><path d="M86,23c-0.6-2-0.6-4.1,0-6.1C86,18.9,86,21,86,23z" class="st22"/><path d="M77.6,18.2c0-0.3,0.1-0.6,0.1-0.9c0.1,0,0.2,0,0.4,0c0,1.7,0,3.4,0,5.1c0,0-0.1,0.1-0.2,0.1 c-0.1-0.2-0.2-0.3-0.3-0.5C77.6,20.8,77.6,19.5,77.6,18.2z" class="st27"/><path d="M73.6,97.1c-0.1-1.1-1-0.8-1.7-0.9c-0.8-0.1-1.6,0.2-2.8-0.4c1.9,0,3.3,0,4.8,0c0,0.4,0,0.9,0.1,1.3 C73.8,97.3,73.7,97.3,73.6,97.1z" class="st28"/><path d="M68.8,95.3c-0.9-1.8-1-3.5,0.1-5.3C68.9,91.8,68.9,93.5,68.8,95.3z" class="st13"/><path d="M68.8,102.8c-0.8-1.6-0.8-3.2,0-4.8C68.8,99.6,68.8,101.2,68.8,102.8z" class="st13"/><path d="M4.4,94.1c0,0.1-0.1,0.2-0.3,0.3c-0.8,0.6-1.7,0.2-2.6,0.3c-0.2,0-0.4-0.2-0.5-0.3l-0.2,0 C1.9,93.1,3.1,92.8,4.4,94.1z" class="st29"/><path d="M3.5,99.8c0.2,0.1,0.3,0.3,0.5,0.4c-1.2,0.5-2.4,0.7-3-0.8c0.2,0,0.3,0,0.5-0.1C2.2,99,2.9,99.2,3.5,99.8z" class="st30"/><path d="M73.6,97.1c0.1,0,0.2,0,0.4,0c-1.5,1.2-3.2,0.3-4.8,0.5C70.6,96.5,72.1,97.4,73.6,97.1z" class="st31"/><path d="M74,103.7c-1.6-0.2-3.3,0.5-4.8-0.4C70.8,103.5,72.5,102.8,74,103.7z" class="st10"/><path d="M26.2,17.8c0.6,1.6,0.6,3.2,0,4.8C26,21,26,19.4,26.2,17.8z" class="st32"/><path d="M83.8,97.1c-1.5,0-3.1,0-4.6,0C80.8,96.7,82.3,96.5,83.8,97.1z" class="st2"/><path d="M51.4,80.2c0.1,0.1,0.3,0.3,0.4,0.4c-1.5,0.1-3,0.7-4.4-0.4C48.8,80.3,50.1,80.3,51.4,80.2z" class="st10"/><path d="M22.3,43.9c-1.4-0.1-2.8,0.4-4.1-0.3C19.6,43.5,21,42.9,22.3,43.9z" class="st33"/><path d="M51.4,43.5c0,0.1,0,0.3,0,0.4c-1.3,0-2.6,0-3.9,0C48.7,42.9,50.1,43.6,51.4,43.5z" class="st34"/><path d="M70.5,56.3c1.3-0.7,2.7-0.7,4,0C73.2,56.3,71.8,56.3,70.5,56.3z" class="st10"/><path d="M74.5,67.9c-1.3,0.6-2.6,0.6-4,0C71.8,67.9,73.2,67.9,74.5,67.9z" class="st35"/><path d="M51.9,88.3c-0.1-0.1-0.3-0.2-0.4-0.4c1.3,0,2.6,0,4,0C54.3,88.6,53,88.1,51.9,88.3z" class="st36"/><path d="M16.4,99.4c-0.2,1.1,0.4,2.4-0.3,3.5c0-0.3-0.1-0.5-0.1-0.8c-0.3-0.9-0.3-1.7,0-2.6 C16.1,99.4,16.3,99.4,16.4,99.4z" class="st37"/><path d="M64.3,80.6c1.2-0.6,2.3-0.6,3.5,0C66.7,80.9,65.5,80.9,64.3,80.6z" class="st10"/><path d="M34.1,21.7c-0.7-1.2-0.7-2.4,0-3.5C34.1,19.4,34.1,20.5,34.1,21.7z" class="st32"/><path d="M35,43.5c-1.2,0.6-2.3,0.6-3.5,0C32.7,43.3,33.8,43.3,35,43.5z" class="st30"/><path d="M10.2,80.7c1-0.7,2-0.6,3.1-0.1C12.3,80.9,11.2,80.8,10.2,80.7z" class="st10"/><path d="M31.5,80.6c1-0.6,2.1-0.6,3.1,0C33.5,80.8,32.5,80.8,31.5,80.6z" class="st10"/><path d="M23.9,102c-0.6-0.9-0.6-1.7,0-2.6C24.1,100.2,24.1,101.1,23.9,102z" class="st38"/><path d="M16,99.4c0,0.9,0,1.7,0,2.6C15.6,101.2,15.3,100.3,16,99.4z" class="st4"/><path d="M68.7,21.3c-0.6-0.9-0.6-1.7,0-2.6C68.7,19.5,68.7,20.4,68.7,21.3z" class="st32"/><path d="M82,99.5c0-0.2,0-0.4,0.1-0.6c0.5,0.7,1,1.4-0.1,2.1C82,100.5,82,100,82,99.5z" class="st39"/><path d="M67.4,43.5c-0.9,0.6-1.7,0.6-2.6,0C65.6,43.5,66.5,43.5,67.4,43.5z" class="st40"/><path d="M66.9,76.2c-0.5,0.8-1.1,0.7-1.6,0C65.8,76.2,66.3,76.2,66.9,76.2z" class="st31"/><path d="M85.6,15c0,0.1,0,0.3-0.1,0.4c-0.2,0.2-0.3,0.1-0.3-0.1c0-0.5-0.2-1.1,0.4-1.5C85.6,14.2,85.6,14.6,85.6,15z" class="st22"/><path d="M60.7,19.1c0.7,0.7,0.7,1.5,0,2.2C60.7,20.5,60.7,19.8,60.7,19.1z" class="st32"/><path d="M17.8,101.5c-0.9-0.5-0.4-1.4-0.5-2.1C18.3,99.9,17.6,100.8,17.8,101.5z" class="st41"/><path d="M8.5,91.8c-0.2-0.2-0.3-0.3-0.5-0.5C8.3,91,8.9,90.5,9.2,91C9.5,91.4,8.8,91.6,8.5,91.8z" class="st19"/><path d="M23.9,93.6c-0.7-0.7-0.6-1.5-0.1-2.2C23.9,92.1,23.9,92.8,23.9,93.6z" class="st38"/><path d="M82.5,93.1c-0.1,0.1-0.3,0.3-0.4,0.4c0-0.4,0-0.8-0.1-1.2c0.1-0.2,0.2-0.4,0.3-0.5 C82.7,92.2,82.4,92.7,82.5,93.1z" class="st13"/><path d="M83,75.7c0-3.6,0-7.3,0-10.9c0.1,0,0.1,0,0.2,0c0,3.7,0,7.3,0,11C83.2,75.7,83.1,75.7,83,75.7z" class="st8"/><path d="M83,59.3c0-3.7,0-7.3,0-11c0.1,0,0.1,0,0.2,0c0,3.6,0,7.3,0,10.9C83.2,59.3,83.1,59.3,83,59.3z" class="st8"/><path d="M30.1,94.6c0.2,1,0.5,2,0.6,3c0.1,0.8-0.5,1.2-1.2,1.2c-0.7-0.1-0.6-0.7-0.5-1.2c0.2-1,0.5-1.9,0.7-2.9 C29.8,94.7,29.9,94.7,30.1,94.6z" class="st42"/><ellipse cx="37.9" cy="100" class="st7" rx=".1" ry="6.5"/><path d="M92.2,101.4c-0.3,0.5-0.6,1-0.8,1.6c-0.7,0.7-1.4,0.7-2.2,0.2c-0.7-0.7-1-1.6-1-2.6c0-2.6,0-5.3,0-7.9 c0-1.1,0-2.3,1.4-2.6c1.5-0.4,2.1,0.7,2.5,1.8C92.6,95.1,92.6,98.2,92.2,101.4z" class="st43"/><path d="M92.2,101.4c0-3.2,0-6.4,0-9.6c0.2-0.2,0.5-0.1,0.5,0.1c0,3.1,0,6.2,0,9.4c0,0.1-0.1,0.1-0.1,0.1 C92.4,101.5,92.3,101.5,92.2,101.4z" class="st10"/><path d="M87.5,100.1c0-2.5,0-4.9,0-7.4c0.1,0,0.1,0,0.2,0c0,2.5,0,4.9,0,7.4C87.6,100.1,87.5,100.1,87.5,100.1z" class="st44"/><path d="M89.2,103.2c0.7,0.1,1.5,0.1,2.2-0.2C90.7,104.2,90,104,89.2,103.2z" class="st10"/><path d="M77.3,101c0-2.9,0-5.8,0-8.7c0.1,0,0.1,0,0.2,0c0,2.9,0,5.8,0,8.7C77.4,101,77.3,101,77.3,101z" class="st45"/><path d="M53.4,90c3.1-0.1,3.4,0.2,3.4,3.3c0,2.3,0,4.7,0,7c0,1.1-0.2,2-1,2.8c-0.9,0.6-1.7,0.6-2.6,0l0,0.1l0.1,0 c-0.7-0.6-0.3-1.4-0.3-2c0-3.1,0-6.3,0-9.4C53,91.2,52.7,90.5,53.4,90z" class="st46"/><path d="M53.4,90c0,4.4,0,8.8,0,13.2c-0.2-0.1-0.4-0.3-0.5-0.4c-0.2-4.1-0.2-8.2,0-12.4C52.9,90.3,53.2,90.2,53.4,90 z" class="st10"/><path d="M57.3,101c0-2.9,0-5.8,0-8.7c0.1,0,0.1,0,0.2,0c0,2.9,0,5.8,0,8.7C57.5,101,57.4,101,57.3,101z" class="st44"/><path d="M53.2,103.2c0.9,0,1.7,0,2.6,0C55,104.1,54.1,104.1,53.2,103.2z" class="st15"/><path d="M3.5,99.8c-0.8,0-1.5,0-2.1-0.5c-0.1-0.1-0.1-0.3-0.2-0.4c0-1.4-0.6-2.9,0.3-4.3c0.8-0.7,1.7-0.5,2.6-0.1 C4.2,96.2,5,98.1,3.5,99.8z" class="st47"/><path d="M1.5,94.5c-0.1,1.4-0.2,2.9-0.3,4.3c-0.7-1.4-0.3-2.9-0.2-4.4C1.2,94.5,1.4,94.5,1.5,94.5z" class="st20"/><path d="M32.9,76.2c-3-0.9-3.6-1.6-3.7-4.8c-0.1-6.3-0.1-12.5,0-18.8c0.1-3.1,1.4-4.4,4-4.4c2.7,0,4,1.5,4,4.7 c0.1,6.1,0,12.2,0,18.4c0,3.1-0.9,4.1-3.7,4.9C33.4,76.5,33.1,76.5,32.9,76.2z" class="st3"/><path d="M28.5,70.9c0-5.9,0-11.7,0-17.6c0.1,0,0.1,0,0.2,0c0,5.9,0,11.7,0,17.6C28.6,70.8,28.5,70.8,28.5,70.9z" class="st7"/><path d="M38.1,53.8c0,5.5,0,11,0,16.6c-0.1,0-0.1,0-0.2,0c0-5.5,0-11.1,0-16.6C37.9,53.7,38,53.8,38.1,53.8z" class="st44"/><path d="M32.9,76.2c0.2,0,0.4,0,0.7,0c0.2,0.1,0.4,0.2,0.5,0.3c-0.6,0.4-1.2,0.4-1.7,0 C32.6,76.4,32.7,76.3,32.9,76.2z" class="st39"/><path d="M61.6,52.9c0,6.1,0,12.2,0,18.3c-0.1,0-0.1,0-0.2,0c0-6.1,0-12.3,0-18.4C61.4,52.9,61.5,52.9,61.6,52.9z" class="st8"/></g></g></svg>