<svg xmlns="http://www.w3.org/2000/svg" xmlns:xlink="http://www.w3.org/1999/xlink" id="Layer_1" x="0" y="0" version="1.1" viewBox="0 0 57.4 56.3" xml:space="preserve" style="enable-background:new 0 0 57.4 56.3"><style type="text/css">.st0,.st3,.st4{fill:#fff;stroke:#231f20;stroke-width:3;stroke-miterlimit:10}.st3,.st4{fill:none}.st4{stroke-linecap:round;stroke-dasharray:2,4}</style><g><path d="M50.5,54.8H7.1c-2.8,0-5-2.2-5-5V6.4c0-2.8,2.2-5,5-5h43.4c2.8,0,5,2.2,5,5v43.4 C55.5,52.6,53.2,54.8,50.5,54.8z" class="st0"/><line x1="1.9" x2="15.9" y1="39.1" y2="27.8" class="st3"/><line x1="15.9" x2="28.7" y1="27.8" y2="36" class="st3"/><line x1="41.7" x2="28.7" y1="22.7" y2="36" class="st3"/><line x1="41.7" x2="55.4" y1="22.7" y2="32.5" class="st3"/><line x1="15.9" x2="15.9" y1="26.6" y2="53.8" class="st4"/><line x1="28.9" x2="28.9" y1="34" y2="53.8" class="st4"/><line x1="41.8" x2="41.8" y1="27.6" y2="54.8" class="st4"/><circle cx="15.9" cy="27.7" r="3.6" class="st0"/><circle cx="28.7" cy="36" r="3.6" class="st0"/><circle cx="41.7" cy="22.7" r="3.6" class="st0"/></g></svg>